HIERARCHY
ROOT root
{
	OFFSET 0.000000 0.000000 0.000000
	CHANNELS 6 Xposition Yposition Zposition Zrotation Yrotation Xrotation
	JOINT lhip
	{
		OFFSET 0.058581 -0.082280 -0.017664
		CHANNELS 3 Zrotation Yrotation Xrotation
		JOINT lknee
		{
			OFFSET 0.043451 -0.386469 0.008037
			CHANNELS 3 Zrotation Yrotation Xrotation
			JOINT lankle
			{
				OFFSET -0.014790 -0.426874 -0.037428
				CHANNELS 3 Zrotation Yrotation Xrotation
				JOINT ltoe
				{
					OFFSET 0.041054 -0.060286 0.122042
					CHANNELS 3 Zrotation Yrotation Xrotation
					End Site
					{
						OFFSET 0.000000 0.000000 0.000000
					}
				}
			}
		}
	}
	JOINT rhip
	{
		OFFSET -0.060310 -0.090513 -0.013543
		CHANNELS 3 Zrotation Yrotation Xrotation
		JOINT rknee
		{
			OFFSET -0.043257 -0.383688 -0.004843
			CHANNELS 3 Zrotation Yrotation Xrotation
			JOINT rankle
			{
				OFFSET 0.019056 -0.420046 -0.034562
				CHANNELS 3 Zrotation Yrotation Xrotation
				JOINT rtoe
				{
					OFFSET -0.034840 -0.062106 0.130323
					CHANNELS 3 Zrotation Yrotation Xrotation
					End Site
					{
						OFFSET 0.000000 0.000000 0.000000
					}
				}
			}
		}
	}
	JOINT lowerback
	{
		OFFSET 0.004439 0.124404 -0.038385
		CHANNELS 3 Zrotation Yrotation Xrotation
		JOINT upperback
		{
			OFFSET 0.004488 0.137956 0.026820
			CHANNELS 3 Zrotation Yrotation Xrotation
			JOINT chest
			{
				OFFSET -0.002265 0.056032 0.002855
				CHANNELS 3 Zrotation Yrotation Xrotation
				JOINT lowerneck
				{
					OFFSET -0.013390 0.211636 -0.033468
					CHANNELS 3 Zrotation Yrotation Xrotation
					JOINT upperneck
					{
						OFFSET 0.010113 0.088937 0.050410
						CHANNELS 3 Zrotation Yrotation Xrotation
						End Site
						{
							OFFSET 0.000000 0.000000 0.000000
						}
					}
				}
				JOINT lclavicle
				{
					OFFSET 0.071702 0.114000 -0.018898
					CHANNELS 3 Zrotation Yrotation Xrotation
					JOINT lshoulder
					{
						OFFSET 0.122921 0.045205 -0.019046
						CHANNELS 3 Zrotation Yrotation Xrotation
						JOINT lelbow
						{
							OFFSET 0.255332 -0.015649 -0.022946
							CHANNELS 3 Zrotation Yrotation Xrotation
							JOINT lwrist
							{
								OFFSET 0.265709 0.012698 -0.007375
								CHANNELS 3 Zrotation Yrotation Xrotation
								End Site
								{
									OFFSET 0.000000 0.000000 0.000000
								}
							}
						}
					}
				}
				JOINT rclavicle
				{
					OFFSET -0.082954 0.112472 -0.023707
					CHANNELS 3 Zrotation Yrotation Xrotation
					JOINT rshoulder
					{
						OFFSET -0.113228 0.046853 -0.008472
						CHANNELS 3 Zrotation Yrotation Xrotation
						JOINT relbow
						{
							OFFSET -0.260127 -0.014369 -0.031269
							CHANNELS 3 Zrotation Yrotation Xrotation
							JOINT rwrist
							{
								OFFSET -0.269108 0.006794 -0.006027
								CHANNELS 3 Zrotation Yrotation Xrotation
								End Site
								{
									OFFSET 0.000000 0.000000 0.000000
								}
							}
						}
					}
				}
			}
		}
	}
}
MOTION
Frames: 14
Frame Time: 0.033333
0.330881 -0.320945 0.985971 -94.823618 0.719299 84.779203 4.350278 4.519616 8.781544 -0.436425 4.078657 10.309822 1.781367 18.801980 -16.920740 0.000000 -0.000000 0.000000 1.228282 -7.690075 -8.015528 -3.489724 -21.701308 12.754725 -2.542219 -20.766421 -15.752544 0.000000 -0.000000 0.000000 -3.657760 1.638930 11.899288 -2.330891 0.038708 12.879272 0.243115 2.148103 1.557457 4.615566 -14.208137 6.692469 16.701282 -12.490129 -1.384250 -25.117276 -4.087893 6.321410 -43.774481 -0.424203 13.632585 119.092176 -80.805863 -108.485339 14.033162 7.250560 -29.036317 25.628835 17.856145 12.003525 54.850394 9.793195 18.090368 -46.672612 83.102150 -38.940633 -9.947451 -3.876113 -26.651121 
0.321271 -0.310623 0.982605 -99.230884 0.393671 84.730865 4.497432 5.076896 9.019553 -0.197919 6.269945 12.851084 1.479298 19.406037 -17.067933 0.000000 -0.000000 0.000000 1.666652 -8.129771 -6.524720 -2.962998 -21.357431 10.662707 -2.030810 -19.501204 -14.533185 0.000000 -0.000000 0.000000 -3.333014 1.527277 11.364111 -2.475296 -0.117768 12.410622 0.171554 2.121389 1.521382 4.172183 -13.791299 6.140068 15.926051 -11.506002 -0.596835 -25.214364 -3.577945 6.205776 -44.513080 -0.231685 13.296596 119.799122 -80.828273 -109.116279 13.732983 7.332396 -29.362810 25.496216 17.316389 11.809756 55.459611 9.754039 18.371445 -44.037995 83.316484 -36.451727 -10.916488 -4.118309 -26.364619 
0.311461 -0.297380 0.980515 -104.204411 0.161811 84.413555 5.088691 5.405675 8.735351 0.000871 8.097265 17.456880 0.966654 19.730522 -16.456807 0.000000 -0.000000 0.000000 2.626715 -7.966320 -4.894858 -2.541427 -19.344999 9.059422 -1.854589 -17.412594 -14.138552 0.000000 -0.000000 0.000000 -3.304924 1.686650 11.029898 -2.461968 -0.086560 12.204285 0.147226 2.239147 1.472642 3.901632 -12.901231 5.335788 15.235855 -10.691419 0.294895 -25.515964 -3.196530 5.794261 -45.077524 0.263256 12.950065 119.357981 -80.568002 -108.637661 12.626581 7.027489 -29.619791 25.613351 17.039119 11.687426 55.682869 9.765061 18.419471 -40.195872 83.429950 -32.412473 -10.369280 -4.199313 -26.114826 
0.302358 -0.282840 0.980156 -109.464293 -0.128734 84.158368 5.739218 5.039931 7.197754 0.162015 9.598735 24.420035 0.678303 19.831575 -14.378933 0.000000 -0.000000 0.000000 3.733498 -7.266929 -3.344992 -2.359782 -16.575959 7.649258 -2.367799 -15.682058 -14.412887 0.000000 -0.000000 0.000000 -3.459406 2.127226 10.699111 -2.418546 -0.016407 12.100359 0.007673 2.365730 1.482576 3.861683 -11.776185 4.504752 14.769568 -9.905599 1.165603 -25.744062 -2.870442 5.353954 -45.525203 0.661038 12.641868 117.426878 -80.204965 -106.489674 11.282293 6.659117 -30.120149 25.870465 16.834385 11.557260 55.773486 9.966533 18.494948 -35.722631 83.206592 -27.294629 -9.042841 -4.239620 -26.231236 
0.293638 -0.268379 0.980707 -114.608722 -0.630432 84.070853 6.080878 3.889223 4.558707 0.024043 10.603069 32.618496 1.090185 19.623168 -10.920498 0.000000 -0.000000 0.000000 4.433589 -6.432469 -1.712694 -2.098382 -13.956820 6.118498 -3.244575 -14.566503 -14.650889 0.000000 -0.000000 0.000000 -3.704391 2.733516 10.332621 -2.486563 -0.071364 11.875419 -0.289525 2.395584 1.604307 3.867106 -10.705203 3.747382 14.451832 -8.992723 2.033588 -25.633428 -2.583474 5.115733 -46.014934 0.855770 12.445364 115.156927 -79.830237 -103.827328 10.421192 6.546896 -30.761296 25.919125 16.696527 11.379738 56.224917 10.333281 18.758622 -32.114009 82.679866 -22.837381 -7.610329 -4.206632 -26.835324 
0.285063 -0.254592 0.981447 -119.393418 -1.313410 83.967719 5.949723 2.486093 1.530016 -1.175559 10.176599 40.218291 1.737019 18.304547 -8.238053 0.000000 -0.000000 0.000000 4.654682 -5.815329 0.073269 -1.816228 -11.531246 4.634706 -3.947289 -13.635868 -15.008259 0.000000 -0.000000 0.000000 -3.953899 3.406772 10.336063 -2.656125 -0.304488 11.397056 -0.663263 2.341043 1.772148 3.864458 -9.659333 2.920118 14.179816 -8.157689 2.780779 -25.437853 -2.409227 4.927918 -46.308603 0.983414 12.406271 113.504460 -79.555800 -101.754937 9.825984 6.553925 -31.460487 25.842891 16.597770 11.059746 56.818895 10.612547 19.095213 -30.483414 82.172965 -20.272744 -6.110040 -4.104649 -27.361384 
0.276400 -0.241367 0.982490 -123.822253 -2.157758 83.755180 5.112608 1.242311 -1.427691 -3.730023 8.348940 45.744495 2.121426 15.880805 -8.154191 0.000000 -0.000000 0.000000 4.533725 -5.542622 1.912926 -1.842220 -9.115504 3.515132 -3.875166 -12.539233 -15.648824 0.000000 -0.000000 0.000000 -4.365237 4.158972 10.691197 -2.807926 -0.702099 10.952306 -0.953174 2.319868 1.945621 3.888813 -8.540211 1.957146 13.938533 -7.665695 3.162332 -25.487986 -2.469293 4.581422 -46.227006 1.061452 12.536843 111.493344 -79.437753 -99.628680 9.541638 6.570650 -31.822089 25.867428 16.520501 10.575830 57.064049 10.751046 19.416739 -30.116594 81.877503 -19.248449 -5.120737 -4.206198 -27.500622 
0.267565 -0.228713 0.983785 -127.787351 -3.094803 83.614927 3.614750 -0.224000 -4.578733 -6.154147 6.687376 48.895848 2.379127 13.720241 -9.681526 0.000000 -0.000000 0.000000 4.119411 -5.370671 3.609737 -2.061088 -6.893288 2.648164 -3.245339 -11.387195 -16.362592 0.000000 -0.000000 0.000000 -4.811699 4.966302 11.188849 -2.956056 -1.238621 10.446787 -1.199907 2.285241 2.181904 3.918706 -7.484665 1.068538 13.745870 -7.545230 3.236099 -25.619408 -2.699468 4.247593 -45.981442 0.873677 12.823510 107.816662 -79.398917 -96.155021 9.326188 6.445784 -31.988173 25.939337 16.285553 9.997172 57.088026 10.883217 19.841903 -29.870027 81.630049 -18.639122 -5.012028 -4.523059 -27.583520 
0.258309 -0.216035 0.985043 -131.422503 -4.001332 83.616689 1.944489 -2.124851 -7.846374 -6.913121 6.240789 49.680264 2.728882 13.019341 -10.993046 0.000000 -0.000000 0.000000 3.587848 -4.950646 5.135923 -2.314545 -4.875721 1.943616 -2.476342 -10.448285 -16.920048 0.000000 -0.000000 0.000000 -5.212205 5.779297 11.602715 -3.092249 -1.736947 9.906129 -1.423095 2.264247 2.443716 3.846757 -6.629961 0.426289 13.608878 -7.588746 3.202990 -25.652340 -3.008529 4.071527 -45.815525 0.374947 13.176247 102.805399 -79.315167 -91.481589 9.022082 6.215122 -31.999299 25.954425 15.936327 9.548407 57.108929 10.984747 20.348943 -30.834451 81.323265 -19.363401 -5.443681 -4.892926 -27.602100 
0.248607 -0.203026 0.986013 -134.904966 -4.835218 83.766036 0.437809 -4.205612 -10.923073 -6.036443 6.547833 48.130439 3.192682 13.537793 -11.853280 0.000000 -0.000000 0.000000 3.081066 -4.135232 6.441570 -2.644240 -2.888317 1.510555 -1.809259 -9.840408 -17.418760 0.000000 -0.000000 0.000000 -5.575626 6.570584 11.822350 -3.231241 -2.043423 9.505859 -1.626887 2.320514 2.604649 3.676829 -5.916309 0.059332 13.520626 -7.670850 3.070779 -25.692715 -3.405067 4.019610 -45.648149 -0.322932 13.572830 97.583732 -79.076493 -86.639659 8.760120 6.005982 -31.603044 26.000941 15.609383 9.357344 57.069630 10.990965 20.810065 -34.131864 80.929006 -22.552446 -6.219738 -5.280478 -27.288903 
0.238475 -0.189583 0.986522 -138.117875 -5.574631 84.003299 -0.831368 -6.313941 -13.548039 -4.497888 6.698914 44.374411 3.824230 14.694163 -12.151090 0.000000 -0.000000 0.000000 2.643378 -3.160745 7.568046 -3.074205 -0.912927 1.349110 -1.508192 -9.604768 -17.983209 0.000000 -0.000000 0.000000 -5.930368 7.246023 11.853119 -3.384313 -2.223434 9.322453 -1.783638 2.429036 2.683289 3.459518 -5.267784 -0.209432 13.433043 -7.729393 2.910181 -25.786732 -3.869564 3.946477 -45.371244 -1.083971 13.978339 92.678166 -78.799029 -81.928949 8.656266 5.889933 -30.827922 26.030593 15.404892 9.291733 56.980712 10.901736 21.165394 -38.175384 80.456532 -26.574180 -6.734098 -5.592836 -27.012860 
0.227674 -0.175264 0.986319 -140.934777 -6.144143 84.270384 -1.731717 -8.225967 -15.547240 -3.096060 6.201837 38.795597 4.384718 15.721389 -11.752184 0.000000 -0.000000 0.000000 2.329729 -2.328620 8.587273 -3.542579 0.880324 1.453982 -1.575104 -9.599508 -18.806613 0.000000 -0.000000 0.000000 -6.197951 7.763084 11.732055 -3.506556 -2.346326 9.297031 -1.891156 2.523152 2.677929 3.224399 -4.575679 -0.518464 13.246707 -7.805425 2.860300 -25.902299 -4.343859 3.815948 -45.001321 -1.751882 14.357107 87.959912 -78.570083 -77.092140 8.457869 5.718771 -29.956592 26.032958 15.247355 9.239290 56.877145 10.624490 21.355663 -41.521485 80.071119 -29.737177 -6.492910 -5.674968 -27.119626 
0.216085 -0.159979 0.985190 -143.344085 -6.519822 84.548220 -2.278917 -9.579844 -16.866426 -2.165933 4.633719 31.877489 4.457229 15.717485 -10.694272 0.000000 -0.000000 0.000000 2.089480 -1.864711 9.403851 -3.964445 2.285797 2.051391 -1.773673 -9.401411 -20.053713 0.000000 -0.000000 0.000000 -6.290444 8.099555 11.611371 -3.581644 -2.442279 9.293690 -1.946918 2.630749 2.498423 2.922997 -3.720607 -0.847473 12.969726 -7.996056 2.897807 -26.070998 -4.849581 3.637123 -44.599815 -2.165463 14.725889 83.720154 -78.377842 -72.682327 7.870007 5.396423 -29.369100 26.088886 15.109711 9.283474 56.708585 10.045811 21.207817 -44.629658 79.963247 -32.527564 -5.840662 -5.510263 -27.434789 
0.203683 -0.143680 0.983067 -145.231500 -6.730757 84.834768 -2.632951 -10.337858 -17.565018 -1.482392 2.005092 24.210828 3.864625 14.489722 -9.112486 0.000000 -0.000000 0.000000 1.871177 -1.862932 10.102449 -4.318907 3.257652 2.983022 -1.876874 -8.904463 -21.554015 0.000000 -0.000000 0.000000 -6.258118 8.267524 11.513125 -3.579331 -2.637469 9.308830 -1.922533 2.742273 2.159519 2.581101 -2.689015 -1.098487 12.702918 -8.325213 2.825761 -26.243223 -5.333390 3.428656 -44.235140 -2.372191 15.113003 80.441767 -78.325421 -69.415444 7.018026 5.015412 -29.228482 26.256394 14.956736 9.445444 56.451482 9.279508 20.803053 -48.305423 80.081495 -35.980076 -5.616437 -5.347620 -27.664772 
